<?xml version="1.0" standalone="no"?>
<!DOCTYPE svg PUBLIC "-//W3C//DTD SVG 20010904//EN"
 "http://www.w3.org/TR/2001/REC-SVG-20010904/DTD/svg10.dtd">
<svg version="1.0" xmlns="http://www.w3.org/2000/svg"
 width="8001.000000pt" height="4501.000000pt" viewBox="0 0 8001.000000 4501.000000"
 preserveAspectRatio="xMidYMid meet">

<g transform="translate(0.000000,4501.000000) scale(0.100000,-0.100000)"
fill="#000000" stroke="none">
<path d="M30260 28439 c-121 -20 -209 -88 -250 -195 -34 -86 -34 -263 0 -348
31 -81 96 -149 169 -177 88 -34 229 -38 322 -9 63 18 82 30 126 75 68 70 94
149 94 285 0 222 -89 339 -281 370 -75 11 -103 11 -180 -1z"/>
<path d="M31232 28439 c-126 -21 -222 -95 -258 -200 -26 -75 -27 -262 -1 -336
53 -151 178 -221 377 -210 123 7 182 28 241 87 73 73 93 137 93 290 0 106 -3
134 -22 182 -42 106 -125 167 -255 188 -71 11 -101 11 -175 -1z"/>
<path d="M26070 28355 c-114 -32 -180 -93 -217 -198 -26 -75 -25 -250 2 -332
50 -155 230 -241 431 -206 92 16 144 41 193 91 65 67 85 132 86 280 0 101 -4
136 -20 180 -26 71 -101 148 -170 174 -69 25 -231 31 -305 11z"/>
<path d="M41941 28355 c-103 -29 -173 -92 -211 -191 -19 -47 -23 -80 -24 -164
-1 -223 79 -337 264 -376 150 -32 296 1 381 86 38 39 52 61 68 116 27 96 33
160 21 244 -20 138 -84 231 -190 271 -73 29 -232 35 -309 14z"/>
<path d="M15490 28126 l-325 -171 -6 -2140 c-5 -1973 -7 -2147 -22 -2225 -58
-282 -174 -501 -363 -680 -178 -169 -392 -272 -670 -321 -92 -16 -163 -21
-309 -22 -201 -1 -290 9 -441 48 -487 127 -849 540 -941 1075 -23 133 -23 437
0 590 43 281 131 534 269 770 31 52 55 96 54 97 -1 1 -146 -29 -321 -68 -373
-81 -337 -61 -433 -248 -238 -460 -278 -1080 -105 -1612 46 -144 163 -376 250
-499 90 -127 321 -357 438 -436 361 -245 799 -359 1305 -340 726 27 1295 316
1641 834 126 189 225 436 270 674 l22 117 70 -36 c87 -43 246 -96 364 -120 82
-17 178 -18 1453 -18 1092 0 1377 3 1425 13 33 7 97 22 141 34 l82 20 98 -25
c180 -45 248 -49 869 -44 550 3 585 5 676 25 273 62 476 168 647 341 174 174
284 393 338 676 21 108 31 721 15 907 -29 327 -130 638 -285 877 -146 225
-384 447 -623 582 -375 211 -920 278 -1358 168 -583 -148 -1039 -599 -1233
-1220 -16 -53 -42 -115 -57 -139 -128 -203 -189 -431 -189 -715 0 -309 72
-563 228 -805 25 -39 46 -73 46 -76 0 -2 -471 -3 -1047 -1 -936 3 -1055 5
-1115 20 -284 70 -436 224 -504 508 -17 69 -18 198 -23 1916 l-6 1841 -325
-172z m4920 -1745 c480 -109 819 -486 894 -994 22 -144 22 -690 1 -830 -44
-294 -169 -449 -420 -520 -62 -18 -109 -21 -403 -25 l-333 -4 44 60 c51 70
127 213 163 309 54 142 75 264 81 463 6 206 -6 315 -52 473 -79 272 -260 502
-495 630 -133 73 -349 127 -505 127 l-69 0 44 46 c145 147 363 252 595 283
107 15 355 5 455 -18z m-911 -766 c90 -22 193 -79 260 -145 144 -141 211 -344
197 -600 -18 -350 -171 -585 -479 -735 -139 -67 -137 -68 -280 3 -197 97 -311
206 -394 377 -59 121 -83 240 -83 408 0 163 19 256 75 372 84 174 228 291 400
325 68 13 236 11 304 -5z"/>
<path d="M23530 28126 l-325 -174 0 -1694 0 -1693 22 -120 c103 -564 450 -922
998 -1032 80 -16 151 -18 660 -18 555 0 573 1 672 23 270 59 463 161 633 331
214 214 329 483 360 841 6 67 10 532 10 1108 0 810 -2 993 -13 990 -7 -2 -156
-79 -330 -172 l-317 -170 0 -815 c0 -478 -4 -853 -10 -906 -29 -258 -140 -439
-329 -533 -147 -74 -176 -77 -681 -77 -504 0 -535 3 -678 75 -167 85 -268 221
-318 430 -17 70 -19 190 -24 1927 l-5 1853 -325 -174z"/>
<path d="M31663 27028 l-323 -172 0 -163 0 -163 -49 30 c-210 129 -452 188
-730 177 -354 -13 -613 -128 -871 -387 -310 -309 -450 -678 -450 -1185 0 -321
51 -558 173 -800 207 -415 559 -673 1001 -734 111 -16 345 -13 454 4 223 36
432 130 596 268 66 55 72 58 84 40 187 -264 350 -392 607 -478 192 -65 225
-68 760 -72 495 -5 638 1 788 32 234 49 429 148 600 305 l67 62 76 -72 c166
-157 382 -260 644 -306 100 -18 196 -19 1855 -19 1609 0 1758 1 1845 17 278
50 486 149 658 312 39 38 72 64 72 58 0 -14 139 -133 210 -180 86 -57 176 -99
290 -136 201 -65 241 -69 794 -74 534 -4 626 1 792 43 204 52 374 143 518 277
l83 77 39 -40 c109 -114 303 -232 469 -287 193 -64 234 -67 825 -67 458 0 549
3 630 17 270 48 482 147 647 301 l63 60 48 -45 c206 -193 472 -298 832 -329
466 -39 836 90 1123 390 266 281 404 635 439 1134 34 488 -70 956 -285 1277
-178 267 -387 431 -670 525 -164 54 -265 69 -487 69 -211 0 -311 -12 -470 -60
-366 -111 -639 -377 -760 -739 -69 -207 -72 -234 -80 -840 -8 -583 -11 -615
-61 -751 -48 -128 -157 -248 -282 -309 -153 -74 -280 -88 -772 -83 -331 4
-366 6 -438 26 -132 36 -203 76 -287 161 -84 85 -126 158 -163 288 l-22 78 -3
1063 c-2 853 -5 1063 -15 1060 -7 -2 -156 -79 -330 -172 l-317 -170 0 -815 c0
-478 -4 -853 -10 -906 -35 -314 -192 -511 -467 -587 -71 -20 -108 -22 -441
-26 -396 -4 -559 5 -668 39 -241 74 -375 223 -429 474 -13 59 -20 160 -25 380
-9 313 -20 410 -65 582 -111 422 -357 774 -705 1013 -561 384 -1420 401 -2118
43 -559 -286 -1082 -868 -1428 -1588 -118 -246 -241 -577 -320 -858 l-16 -59
-36 7 c-21 3 -75 25 -122 47 -114 55 -194 135 -249 250 -78 164 -75 134 -81
1038 -3 529 -8 804 -15 803 -5 -1 -152 -78 -325 -171 l-315 -168 -6 -620 c-6
-661 -7 -679 -60 -820 -48 -128 -157 -248 -282 -309 -154 -74 -280 -88 -777
-83 -411 5 -450 10 -593 85 -140 72 -249 218 -292 388 -31 124 -35 275 -35
1493 0 672 -3 1222 -7 1221 -5 0 -153 -77 -330 -171z m6582 -860 c407 -60 760
-379 880 -795 46 -156 57 -282 52 -547 -4 -204 -8 -254 -26 -326 -64 -250
-215 -404 -456 -466 -65 -17 -162 -18 -1472 -21 -882 -2 -1403 0 -1403 6 0 5
20 67 44 138 154 450 372 861 632 1188 116 146 344 372 471 468 401 299 837
421 1278 355z m7843 -9 c223 -57 409 -242 502 -498 100 -275 114 -692 34
-1013 -68 -275 -200 -463 -397 -564 -99 -50 -180 -67 -327 -67 -375 2 -593
166 -655 496 -14 75 -16 158 -12 609 4 585 4 588 78 746 66 143 183 244 332
287 131 38 306 39 445 4z m-15227 -55 c153 -35 295 -113 413 -226 l66 -63 1
-650 2 -650 -70 -72 c-121 -124 -284 -214 -443 -243 -86 -17 -260 -17 -335 -1
-216 46 -396 201 -504 433 -69 147 -101 313 -101 526 0 330 89 579 270 763
115 116 228 176 374 200 71 11 242 2 327 -17z"/>
<path d="M20633 20667 l-173 -90 0 -1603 0 -1604 175 0 175 0 0 916 0 916 68
67 c114 114 294 204 465 231 93 15 255 8 341 -16 198 -53 339 -197 395 -404
36 -131 41 -244 41 -987 l0 -723 176 0 175 0 -4 823 c-4 893 -3 879 -63 1069
-45 143 -98 232 -194 328 -123 124 -252 185 -450 215 -336 52 -641 -34 -897
-253 l-53 -44 -2 624 -3 625 -172 -90z"/>
<path d="M26035 20667 l-170 -93 -3 -1602 -2 -1602 175 0 175 0 0 1695 c0 932
-1 1695 -2 1694 -2 0 -79 -42 -173 -92z"/>
<path d="M28900 20754 c-94 -7 -371 -34 -462 -46 l-88 -11 0 -1663 0 -1664
195 0 195 0 0 691 0 692 58 -6 c606 -67 993 13 1249 256 200 190 292 426 293
749 1 501 -228 823 -673 947 -143 40 -254 53 -487 56 -124 1 -250 1 -280 -1z
m380 -314 c290 -26 477 -134 574 -332 50 -102 68 -196 69 -358 2 -433 -200
-661 -624 -701 -113 -11 -383 -2 -516 18 l-43 6 0 667 0 668 23 6 c31 7 198
26 272 29 33 2 76 4 95 5 19 1 87 -3 150 -8z"/>
<path d="M31185 20667 l-170 -93 -3 -1602 -2 -1602 175 0 175 0 0 1695 c0 932
-1 1695 -2 1694 -2 0 -79 -42 -173 -92z"/>
<path d="M37250 20745 c-203 -46 -349 -195 -406 -415 -12 -49 -18 -127 -21
-317 l-5 -253 -169 0 -169 0 0 -145 0 -145 170 0 170 0 0 -1050 0 -1050 175 0
175 0 0 1050 0 1050 300 0 300 0 0 145 0 145 -301 0 -301 0 4 228 c5 249 13
290 68 373 80 121 281 145 499 58 41 -16 78 -28 82 -27 4 2 35 44 68 95 l60
92 -29 21 c-56 40 -186 99 -275 125 -114 34 -295 43 -395 20z"/>
<path d="M12050 19035 l0 -1665 195 0 195 0 2 1323 3 1322 204 -335 c431 -707
1012 -1640 1294 -2077 l149 -233 184 0 184 0 0 1665 0 1665 -195 0 -195 0 -2
-1352 -3 -1353 -139 235 c-508 854 -1213 2001 -1496 2432 l-25 38 -177 0 -178
0 0 -1665z"/>
<path d="M35083 20363 l-163 -84 0 -260 0 -259 -185 0 -185 0 0 -150 0 -150
180 0 179 0 3 -827 c3 -818 4 -829 25 -906 61 -214 192 -350 388 -402 137 -37
361 -15 517 51 93 39 199 104 191 118 -10 16 -115 180 -118 184 -1 1 -27 -9
-58 -22 -91 -41 -175 -59 -277 -60 -87 -1 -100 2 -155 29 -103 52 -149 136
-161 300 -4 44 -3 407 1 807 l7 728 362 2 361 3 0 145 0 145 -362 3 -363 2 0
345 c0 270 -3 345 -12 344 -7 -1 -86 -39 -175 -86z"/>
<path d="M16045 19809 c-236 -30 -495 -143 -654 -285 l-43 -39 58 -97 59 -97
25 16 c141 93 259 148 396 184 76 21 112 24 254 24 153 -1 170 -3 243 -28 227
-79 336 -239 354 -519 l6 -98 -244 0 c-134 0 -296 -5 -359 -10 -504 -44 -810
-221 -915 -530 -72 -210 -55 -467 43 -655 52 -100 172 -218 278 -272 349 -181
879 -102 1176 175 25 23 48 39 51 35 2 -4 14 -61 27 -125 l24 -118 133 0 134
0 -4 838 c-3 826 -3 838 -26 936 -87 387 -296 600 -648 661 -92 16 -255 18
-368 4z m695 -1527 l0 -327 -26 -40 c-84 -126 -221 -221 -404 -280 -111 -36
-290 -45 -393 -21 -248 58 -386 272 -348 539 25 181 129 302 324 377 147 57
305 76 635 79 l212 1 0 -328z"/>
<path d="M18605 19809 c-236 -30 -495 -143 -654 -285 l-43 -39 58 -97 59 -97
25 16 c141 93 259 148 396 184 76 21 112 24 254 24 153 -1 170 -3 243 -28 227
-79 336 -239 354 -519 l6 -98 -244 0 c-134 0 -296 -5 -359 -10 -504 -44 -810
-221 -915 -530 -72 -210 -55 -467 43 -655 52 -100 172 -218 278 -272 349 -181
879 -102 1176 175 25 23 48 39 51 35 2 -4 14 -61 27 -125 l24 -118 133 0 134
0 -4 838 c-3 826 -3 838 -26 936 -87 387 -296 600 -648 661 -92 16 -255 18
-368 4z m695 -1527 l0 -327 -26 -40 c-84 -126 -221 -221 -404 -280 -111 -36
-290 -45 -393 -21 -248 58 -386 272 -348 539 25 181 129 302 324 377 147 57
305 76 635 79 l212 1 0 -328z"/>
<path d="M24017 19810 c-444 -70 -793 -450 -892 -970 -38 -197 -30 -462 20
-662 112 -449 460 -771 923 -854 120 -21 368 -21 497 1 55 9 146 32 202 50
144 48 219 87 377 197 7 4 -83 181 -109 216 -2 2 -45 -19 -96 -47 -287 -152
-611 -184 -887 -88 -212 74 -404 258 -485 466 -31 80 -67 233 -67 289 l0 32
851 0 852 0 -6 173 c-7 206 -26 323 -77 478 -126 380 -350 610 -677 695 -109
29 -320 40 -426 24z m344 -296 c193 -58 333 -203 410 -428 30 -85 59 -242 59
-313 l0 -43 -669 0 -670 0 5 38 c25 187 47 268 101 377 108 216 287 356 498
389 54 8 211 -4 266 -20z"/>
<path d="M32885 19809 c-236 -30 -495 -143 -654 -285 l-43 -39 58 -97 59 -97
25 16 c141 93 259 148 396 184 76 21 112 24 254 24 153 -1 170 -3 243 -28 227
-79 336 -239 354 -519 l6 -98 -244 0 c-134 0 -296 -5 -359 -10 -504 -44 -810
-221 -915 -530 -72 -210 -55 -467 43 -655 52 -100 172 -218 278 -272 349 -181
879 -102 1176 175 25 23 48 39 51 35 2 -4 14 -61 27 -125 l24 -118 133 0 134
0 -4 838 c-3 826 -3 838 -26 936 -87 387 -296 600 -648 661 -92 16 -255 18
-368 4z m695 -1527 l0 -327 -26 -40 c-84 -126 -221 -221 -404 -280 -111 -36
-290 -45 -393 -21 -248 58 -386 272 -348 539 25 181 129 302 324 377 147 57
305 76 635 79 l212 1 0 -328z"/>
<path d="M39145 19809 c-233 -34 -422 -124 -589 -280 -184 -172 -298 -383
-358 -663 -32 -148 -32 -456 0 -603 86 -398 313 -702 637 -854 286 -134 677
-136 961 -5 331 153 574 478 649 868 40 206 27 505 -30 704 -94 324 -309 595
-580 732 -183 91 -468 133 -690 101z m395 -309 c242 -81 432 -306 506 -599 75
-295 45 -654 -74 -886 -62 -120 -156 -232 -250 -297 -151 -104 -371 -144 -567
-103 -296 62 -526 341 -586 710 -19 117 -16 380 5 490 70 369 277 622 568 696
102 26 305 21 398 -11z"/>
<path d="M41949 19801 c-143 -37 -265 -105 -403 -225 -41 -36 -77 -66 -79 -66
-3 0 -10 44 -16 98 -7 53 -14 109 -17 125 l-6 27 -149 0 -149 0 0 -1195 0
-1195 175 0 175 0 0 913 0 914 50 57 c152 174 294 247 480 248 119 1 207 -27
315 -101 l74 -50 141 96 c77 53 140 102 140 109 0 21 -144 148 -205 181 -142
75 -372 103 -526 64z"/>
<path d="M44052 19806 c-207 -40 -372 -118 -525 -249 -40 -34 -61 -46 -66 -38
-4 6 -13 59 -20 118 -7 59 -15 111 -17 115 -3 4 -70 8 -150 8 l-144 0 0 -1195
0 -1195 175 0 175 0 0 912 0 913 83 81 c73 70 101 89 208 142 140 69 228 92
348 92 314 0 517 -153 591 -445 33 -128 39 -289 40 -1012 l0 -683 176 0 175 0
-4 808 c-4 720 -6 816 -22 892 -30 148 -31 144 54 215 99 85 208 148 322 187
89 31 102 32 239 33 165 0 221 -10 328 -63 142 -68 237 -196 290 -390 l26 -97
4 -792 3 -793 179 0 180 0 0 754 c0 793 -4 891 -45 1050 -45 179 -101 287
-204 398 -146 156 -324 232 -576 245 -327 16 -619 -89 -847 -306 l-74 -70 -42
64 c-91 137 -244 241 -422 285 -110 28 -333 36 -438 16z"/>
</g>
</svg>
