<svg width="524" height="181" viewBox="0 0 524 181" fill="none" xmlns="http://www.w3.org/2000/svg">
<path d="M186.502 58.8742C202.537 58.8742 215.536 45.875 215.536 29.8397C215.536 13.8044 202.537 0.805176 186.502 0.805176C170.467 0.805176 157.467 13.8044 157.467 29.8397C157.467 45.875 170.467 58.8742 186.502 58.8742Z" fill="#8C76DD"/>
<path d="M212.599 68.1948C212.26 68.0253 211.921 67.8559 211.526 67.7429C211.018 67.5735 210.509 67.517 209.944 67.517H131.088C129.167 67.517 127.473 68.4772 126.512 69.9459C126.512 69.9459 126.512 69.9459 126.512 70.0024C125.948 70.8497 125.609 71.923 125.609 73.0527V151.57L63.0771 19.898C57.6543 8.4311 45.9614 1.03125 33.2517 1.03125C15.0628 1.03125 0.206604 15.831 0.206604 34.0199V174.109C0.206604 177.215 2.74854 179.757 5.85534 179.757H41.16C68.161 179.757 90.191 157.784 90.191 130.726C90.191 127.62 87.6491 125.078 84.5423 125.078C81.4355 125.078 78.8935 127.62 78.8935 130.726C78.8935 151.57 61.9473 168.516 41.1035 168.516H11.4476V34.0199C11.4476 21.9881 21.2199 12.2158 33.2517 12.2158C41.6119 12.2158 49.3506 17.0737 52.9093 24.643L125.609 177.611C125.948 178.345 126.456 178.967 127.021 179.475C127.021 179.475 127.021 179.475 127.077 179.531C127.19 179.588 127.247 179.701 127.36 179.757C128.32 180.435 129.45 180.831 130.636 180.831H164.924C192.659 180.831 215.254 158.236 215.254 130.5C215.254 130.5 215.537 118.073 215.537 111.747V72.9397C215.537 70.8497 214.35 68.9856 212.599 68.0818V68.1948Z" fill="#8C76DD"/>
<path d="M428.042 22.3845C422.224 22.3845 416.971 23.9661 412.339 27.1294C406.634 31.0836 402.792 36.8453 400.759 44.3016C398.386 47.6344 397.257 51.7015 397.257 56.4464C397.257 61.6997 398.782 66.4447 401.889 70.5683H357.207C348.79 70.5683 344.554 66.5012 344.554 58.4235V1.93604L333.991 7.5283V72.7713C333.991 78.5895 332.296 83.3909 328.907 87.119C324.953 91.5251 319.248 93.6716 311.848 93.6716C305.352 93.6716 300.098 91.6946 296.144 87.684C291.851 83.3909 289.705 77.8551 289.705 71.1331C289.705 64.4111 291.569 58.028 295.297 52.2663L284.847 54.5823C281.514 59.4402 279.876 65.3149 279.876 72.2064C279.876 80.0581 282.135 86.8366 286.711 92.5419C292.642 99.8287 301.002 103.5 311.904 103.5C320.264 103.5 327.269 101.41 332.974 97.1738C339.357 92.3724 343.142 85.8198 344.271 77.4597C347.774 79.3803 351.671 80.3971 356.077 80.3971H407.198C409.853 80.3971 412.452 80.0017 414.994 79.1543C417.423 79.9452 420.021 80.3971 422.789 80.3971H435.951C442.051 80.3971 446.966 78.7024 450.807 75.3132C455.213 71.4156 457.359 65.9363 457.359 58.8753V52.4358C457.359 43.7367 454.704 36.6758 449.451 31.14C443.859 25.3218 436.741 22.3845 428.155 22.3845H428.042ZM414.937 69.495C408.272 67.2355 404.939 62.66 404.939 55.8815C404.939 52.4923 405.843 49.7244 407.65 47.6909C409.458 45.6573 411.887 44.584 414.881 44.584C417.875 44.584 420.304 45.6008 422.111 47.6909C423.919 49.7809 424.823 52.4923 424.823 55.8815C424.823 62.7165 421.49 67.2355 414.824 69.495H414.937ZM446.683 57.9151C446.683 62.3776 445.836 65.5973 444.085 67.5744C442.334 69.5515 439.453 70.5683 435.499 70.5683H427.816C430.98 66.6142 432.561 61.8692 432.561 56.4464C432.561 51.0236 430.98 46.2222 427.76 42.7764C424.54 39.3307 420.304 37.5796 414.937 37.5796H414.598C417.762 33.9079 422.168 32.1003 427.76 32.1003C432.618 32.1003 436.798 33.6255 440.3 36.7323C444.593 40.4604 446.74 45.7138 446.74 52.4358V57.9151H446.683Z" fill="black"/>
<path d="M517.405 12.8935C521.303 12.8935 523.223 10.8599 523.223 6.79283C523.223 2.72573 521.303 0.805176 517.405 0.805176C513.508 0.805176 511.418 2.78222 511.418 6.79283C511.418 10.8034 513.395 12.8935 517.405 12.8935Z" fill="black"/>
<path d="M512.491 58.4235C512.491 66.5577 508.537 70.5683 500.572 70.5683H491.817C483.852 70.5683 479.898 66.5012 479.898 58.4235V1.93604L469.448 7.5283V58.7624C469.448 64.75 471.086 69.7209 474.305 73.6186C478.09 78.1375 483.569 80.4536 490.63 80.4536H501.815C507.972 80.4536 512.943 78.6459 516.784 75.0872C520.908 71.1331 522.998 65.6538 522.998 58.7624V27.5813L512.547 33.1736V58.367L512.491 58.4235Z" fill="black"/>
<path d="M286.767 179.87H279.819V120.615H286.089C291.795 129.144 301.68 145.3 315.745 168.912V120.615H322.693V179.87H316.254C312.864 174.786 306.029 163.884 295.636 147.107C291.286 139.99 288.292 135.132 286.767 132.477V179.87Z" fill="black"/>
<path d="M367.77 179.87H363.082L362.121 175.294C358.337 179.079 353.592 181 347.887 181C343.593 181 340.148 179.814 337.606 177.385C335.064 174.956 333.765 171.792 333.765 167.782C333.765 158.066 340.882 153.151 355.117 153.151H361.556V152.587C361.556 145.187 357.941 141.459 350.711 141.459C346.587 141.459 342.633 142.814 338.792 145.582L336.758 142.136C341.052 138.182 346.305 136.262 352.462 136.262C357.376 136.262 361.161 137.787 363.816 140.837C366.414 143.888 367.77 148.294 367.77 154.055V179.87ZM361.613 157.783H355.908C345.683 157.783 340.543 160.947 340.543 167.217C340.543 169.928 341.334 172.018 342.916 173.543C344.497 175.069 346.757 175.859 349.638 175.859C352.123 175.859 354.552 175.238 356.868 173.995C359.184 172.753 360.766 171.171 361.669 169.307V157.783H361.613Z" fill="black"/>
<path d="M411.491 179.87H406.803L405.843 175.294C402.058 179.079 397.313 181 391.608 181C387.315 181 383.869 179.814 381.327 177.385C378.785 174.956 377.486 171.792 377.486 167.782C377.486 158.066 384.603 153.151 398.838 153.151H405.278V152.587C405.278 145.187 401.663 141.459 394.432 141.459C390.309 141.459 386.354 142.814 382.513 145.582L380.48 142.136C384.773 138.182 390.026 136.262 396.183 136.262C401.098 136.262 404.882 137.787 407.537 140.837C410.136 143.888 411.491 148.294 411.491 154.055V179.87ZM405.334 157.783H399.629C389.405 157.783 384.264 160.947 384.264 167.217C384.264 169.928 385.055 172.018 386.637 173.543C388.219 175.069 390.478 175.859 393.359 175.859C395.844 175.859 398.273 175.238 400.589 173.995C402.905 172.753 404.487 171.171 405.391 169.307V157.783H405.334Z" fill="black"/>
<path d="M459.845 179.869H453.687V154.958C453.687 146.089 449.733 141.683 441.882 141.683C439.735 141.683 437.589 142.248 435.329 143.322C433.07 144.395 431.431 145.751 430.358 147.276V179.869H424.088V122.76L430.358 119.484V141.853C434.256 138.125 438.718 136.261 443.859 136.261C454.535 136.261 459.845 142.361 459.845 154.506V179.869Z" fill="black"/>
<path d="M506.616 160.777H476.282C476.508 165.353 478.09 168.968 481.027 171.736C483.908 174.504 487.693 175.859 492.325 175.859C496.222 175.859 499.951 174.73 503.679 172.414L505.825 176.142C501.702 179.362 496.731 181 490.913 181C484.191 181 478.824 178.797 474.814 174.334C471.142 170.324 469.278 165.183 469.278 158.8C469.278 152.417 471.255 146.655 475.153 142.249C478.711 138.239 483.117 136.262 488.371 136.262C494.697 136.262 499.499 138.804 502.775 143.944C505.317 147.955 506.616 152.869 506.616 158.744V160.777ZM476.226 155.75H500.177C500.007 151.174 498.877 147.616 496.844 145.074C494.81 142.532 492.042 141.233 488.484 141.233C485.094 141.233 482.27 142.588 480.011 145.243C477.751 147.955 476.452 151.4 476.226 155.75Z" fill="black"/>
<path d="M522.828 119.484V179.869H516.558V122.873L522.828 119.484Z" fill="black"/>
</svg>
