<?xml version="1.0" encoding="UTF-8"?>
<svg version="1.1" xmlns="http://www.w3.org/2000/svg" width="485" height="132">
<path d="M0 0 C160.05 0 320.1 0 485 0 C485 43.56 485 87.12 485 132 C324.95 132 164.9 132 0 132 C0 88.44 0 44.88 0 0 Z " fill="#B2B4B9" transform="translate(0,0)"/>
<path d="M0 0 C5.82822664 4.32115659 9.31084564 11.07007579 13.02832031 17.16699219 C14.47410984 19.53197691 15.96427402 21.86756704 17.45703125 24.203125 C18.29427734 25.51990234 18.29427734 25.51990234 19.1484375 26.86328125 C25.05957293 36.11808925 31.02007907 45.33788656 37.14453125 54.453125 C41.42516189 60.83077223 45.52003949 67.31308982 49.5625 73.84375 C52.68890031 78.88895067 55.888539 83.88773519 59.08203125 88.890625 C59.0901181 88.26866241 59.09820496 87.64669983 59.10653687 87.00588989 C59.19239632 80.54977484 59.29189101 74.09397346 59.39941406 67.63818359 C59.43776772 65.22677872 59.47260915 62.81531538 59.50390625 60.40380859 C59.54941828 56.94347187 59.60743529 53.48353992 59.66796875 50.0234375 C59.67951996 48.94007111 59.69107117 47.85670471 59.70297241 46.74050903 C59.7228421 45.7396225 59.74271179 44.73873596 59.76318359 43.70751953 C59.77650726 42.82371613 59.78983093 41.93991272 59.80355835 41.02932739 C60.08203125 38.890625 60.08203125 38.890625 62.08203125 36.890625 C65.02902222 36.63665771 65.02902222 36.63665771 68.85498047 36.63183594 C69.55110443 36.6283313 70.24722839 36.62482666 70.96444702 36.62121582 C73.27197159 36.61239394 75.57919091 36.61825039 77.88671875 36.625 C79.48853616 36.62365317 81.09035318 36.62171249 82.69216919 36.61920166 C86.05311974 36.61624953 89.41396412 36.6205497 92.77490234 36.62988281 C97.08143031 36.64125908 101.38770849 36.63473011 105.69422722 36.62273788 C109.00393551 36.61550596 112.31358475 36.61781365 115.62329483 36.62299347 C117.21090855 36.62432723 118.79852765 36.6226918 120.3861351 36.61803436 C122.6076651 36.61294925 124.82879288 36.62070781 127.05029297 36.63183594 C128.31445038 36.63342712 129.57860779 36.63501831 130.881073 36.63665771 C133.88525312 36.87501242 135.56488288 37.3036918 138.08203125 38.890625 C138.23166535 44.79464943 138.33984806 50.69754216 138.41162109 56.60302734 C138.44157628 58.60680395 138.48235601 60.61045191 138.53466797 62.61376953 C139.13532757 86.22793616 139.13532757 86.22793616 129.83837891 96.328125 C125.42042301 100.60337029 120.7604737 103.61901225 115.08203125 105.890625 C113.82567871 106.39746826 113.82567871 106.39746826 112.54394531 106.91455078 C103.12429138 110.25997975 94.20225648 110.57077604 84.28613281 110.52197266 C81.55767762 110.51556783 78.83340329 110.56301698 76.10546875 110.61328125 C74.35807833 110.61782071 72.61067637 110.61923727 70.86328125 110.6171875 C70.05491821 110.63560699 69.24655518 110.65402649 68.41369629 110.67300415 C62.94819473 110.58323803 62.94819473 110.58323803 60.51812744 108.64007568 C59.19433594 107.08349609 59.19433594 107.08349609 57.08203125 103.890625 C56.60862305 103.22417969 56.13521484 102.55773437 55.64746094 101.87109375 C55.27008789 101.27941406 54.89271484 100.68773438 54.50390625 100.078125 C54.07013672 99.40265625 53.63636719 98.7271875 53.18945312 98.03125 C52.5175293 96.97164062 52.5175293 96.97164062 51.83203125 95.890625 C51.35314453 95.14296875 50.87425781 94.3953125 50.38085938 93.625 C49.40523963 92.10132295 48.43126353 90.57659214 47.45898438 89.05078125 C45.50897097 85.99161128 43.54523729 82.94133684 41.58203125 79.890625 C41.22399414 79.33310547 40.86595703 78.77558594 40.49707031 78.20117188 C37.53616943 73.59066368 34.56039973 68.98986379 31.58203125 64.390625 C26.3688163 56.33966593 21.17972412 48.27342768 15.99804688 40.20214844 C15.63904297 39.64301758 15.28003906 39.08388672 14.91015625 38.5078125 C14.54776855 37.94336426 14.18538086 37.37891602 13.81201172 36.79736328 C13.07751519 35.65456068 12.34216825 34.51230419 11.60595703 33.37060547 C9.47058593 30.05869584 7.35116919 26.73751416 5.24609375 23.40625 C4.27481397 21.88016099 3.30346087 20.35411864 2.33203125 18.828125 C1.88424316 18.11358154 1.43645508 17.39903809 0.97509766 16.6628418 C-3.04242151 10.37698327 -7.31630005 4.70120427 -14.91796875 2.890625 C-22.0941196 1.99113502 -27.44795501 2.31099484 -33.39453125 6.6015625 C-36.60016628 9.31402291 -37.36412868 10.73557151 -37.91796875 14.890625 C-38.03381115 17.74910254 -38.10260678 20.58554028 -38.12329102 23.44458008 C-38.13814041 24.71851624 -38.13814041 24.71851624 -38.15328979 26.01818848 C-38.18478784 28.81548305 -38.20961585 31.61279459 -38.234375 34.41015625 C-38.25495463 36.35357597 -38.27595137 38.29699132 -38.29734802 40.24040222 C-38.35246445 45.34817963 -38.40191963 50.45599674 -38.45019531 55.56384277 C-38.50048658 60.77892579 -38.5561328 65.99395136 -38.61132812 71.20898438 C-38.71878211 81.43614881 -38.8202553 91.66336319 -38.91796875 101.890625 C-34.74039214 101.84580039 -30.56418781 101.77529877 -26.38745117 101.68310547 C-24.97285372 101.65524582 -23.55811072 101.63386131 -22.14331055 101.61962891 C-10.29565352 101.49345578 1.97396237 100.52625575 11.4296875 92.58984375 C16.36127103 87.51835714 18.37642528 82.94668468 19.08203125 75.890625 C21.08203125 73.890625 21.08203125 73.890625 24.08203125 73.640625 C27.08203125 73.890625 27.08203125 73.890625 29.08203125 75.890625 C30.19688064 80.96104577 29.37949572 85.08930357 26.64453125 89.453125 C19.00919455 99.69913888 9.26692509 106.35350962 -3.359375 108.50244141 C-10.45960889 109.27695924 -17.59270167 109.18464589 -24.7277832 109.15136719 C-27.50558694 109.14052698 -30.28276128 109.15137298 -33.06054688 109.1640625 C-34.82682434 109.16274294 -36.59310142 109.16018479 -38.359375 109.15625 C-39.189496 109.16029846 -40.019617 109.16434692 -40.87489319 109.16851807 C-46.68797 109.12062375 -46.68797 109.12062375 -48.91796875 106.890625 C-49.12212989 103.90945417 -49.20110396 101.02080393 -49.19262695 98.03808594 C-49.19773788 97.12084244 -49.20284882 96.20359894 -49.20811462 95.25856018 C-49.22206014 92.21397446 -49.22104962 89.16961395 -49.21875 86.125 C-49.22263525 84.0123079 -49.22696957 81.89961657 -49.23173523 79.78692627 C-49.23920887 75.35157748 -49.23889865 70.91630827 -49.23364258 66.48095703 C-49.22785763 60.80023586 -49.24474994 55.11984176 -49.26798725 49.43917465 C-49.28273202 45.07253111 -49.28359507 40.70596609 -49.28047752 36.33930206 C-49.28099073 34.2453573 -49.28622833 32.15140814 -49.29628944 30.05748749 C-49.30864567 27.12502453 -49.30186597 24.19319525 -49.2902832 21.26074219 C-49.29792694 20.39713577 -49.30557068 19.53352936 -49.31344604 18.64375305 C-49.25458877 11.89147614 -47.52856007 7.07507284 -42.66796875 2.203125 C-31.42965247 -8.53729119 -12.73341681 -7.36515351 0 0 Z " fill="#8C77DC" transform="translate(325.91796875,18.109375)"/>
<path d="M0 0 C0.00410889 1.16571533 0.00821777 2.33143066 0.01245117 3.5324707 C0.03421176 7.85469877 0.08846863 12.17601248 0.15258789 16.49780273 C0.1757949 18.36880738 0.19016995 20.23994317 0.19555664 22.11108398 C0.20482682 24.80015028 0.24577159 27.48714645 0.29296875 30.17578125 C0.2890361 31.01337479 0.28510345 31.85096832 0.28105164 32.71394348 C0.37011712 36.25325187 0.44080552 38.41377498 2.93945312 41.03320312 C7.24092155 42.391995 11.19111221 42.37073845 15.67578125 42.29296875 C16.6009404 42.28872391 17.52609955 42.28447906 18.47929382 42.28010559 C21.4239963 42.26335993 24.3680056 42.22571522 27.3125 42.1875 C29.31314113 42.17244785 31.31379303 42.15876037 33.31445312 42.14648438 C38.20990107 42.11346983 43.10483315 42.06171575 48 42 C47.51660156 41.24203125 47.03320312 40.4840625 46.53515625 39.703125 C44.46222555 36.05307908 44.37558104 34.16279305 45 30 C48.35089686 23.19126275 53.40958685 17.39428024 60.171875 13.8671875 C68.18679328 11.40957444 79.13206314 11.52684686 86.75 15.0625 C89.0078125 16.484375 89.0078125 16.484375 91 18 C91.63679687 18.43828125 92.27359375 18.8765625 92.9296875 19.328125 C96.2237788 22.21235241 96.92656505 24.47416288 97.53515625 28.83203125 C97.60833909 30.2620502 97.65876788 31.69339796 97.6875 33.125 C97.71674561 34.16491089 97.71674561 34.16491089 97.74658203 35.22583008 C97.66060668 38.91435 97.11868574 40.84189914 94.89453125 43.8046875 C88.98778178 48.28457036 83.95255158 49.44682053 76.63378906 49.35644531 C75.8280394 49.35848969 75.02228973 49.36053406 74.19212341 49.36264038 C71.54972043 49.36562947 68.90795298 49.34723211 66.265625 49.328125 C64.4219376 49.32506474 62.57824789 49.32319065 60.73455811 49.32244873 C56.88137893 49.31785789 53.02841018 49.3034753 49.17529297 49.28125 C44.23325741 49.25288912 39.29138672 49.24202906 34.3492775 49.2375679 C30.54722442 49.23341548 26.74520471 49.22360075 22.94316864 49.21169281 C21.12028011 49.20599284 19.2973884 49.20123323 17.47449493 49.19742584 C14.93248328 49.19056372 12.39060266 49.17693349 9.84863281 49.16113281 C9.09430466 49.16001495 8.3399765 49.15889709 7.56278992 49.15774536 C4.44015133 49.13199267 1.98540323 48.99513441 -1 48 C-1.165 48.845625 -1.33 49.69125 -1.5 50.5625 C-4.09123545 56.5007479 -8.78822347 60.20872519 -14.71484375 62.68359375 C-19.14838713 64.24306686 -23.26965287 64.46206814 -27.9375 64.375 C-28.72946777 64.36412354 -29.52143555 64.35324707 -30.33740234 64.34204102 C-40.57119747 64.06263078 -46.85954024 61.49245425 -54 54 C-57.36111647 50.11370909 -57.52918045 46.42503473 -57.3359375 41.4453125 C-56.80765215 37.59988658 -55.81329144 35.67605772 -53 33 C-49.99068815 32.22824877 -47.0999735 32.01324775 -44 32 C-44.495 32.78375 -44.99 33.5675 -45.5 34.375 C-47.43904009 39.06101356 -47.86266188 42.99493343 -47 48 C-44.68407964 52.74070877 -40.73169618 55.00950281 -36 57 C-28.83485288 57.92265816 -21.94742321 57.83980188 -15.55078125 54.265625 C-12.95463227 52.14685354 -11.20111866 50.12348141 -10.60127258 46.77264404 C-10.59016953 45.96434143 -10.57906647 45.15603882 -10.56762695 44.32324219 C-10.54783279 43.40258972 -10.52803864 42.48193726 -10.50764465 41.53338623 C-10.50125473 40.54783752 -10.49486481 39.56228882 -10.48828125 38.546875 C-10.47033005 37.53151672 -10.45237885 36.51615845 -10.43388367 35.47003174 C-10.37974293 32.23006328 -10.34587238 28.99024247 -10.3125 25.75 C-10.27933031 23.55206277 -10.24484098 21.35414504 -10.20898438 19.15625 C-10.12401444 13.77096573 -10.05568046 8.38566244 -10 3 C-6.27034861 0.96564469 -4.33094958 0 0 0 Z " fill="#09090A" transform="translate(65,14)"/>
<path d="M0 0 C4.13675771 3.71134646 7.74621057 7.46210569 8.3125 13.125 C7.87969915 18.49173054 6.34503861 22.64888616 2.4921875 26.51171875 C-4.95732743 32.28076171 -13.73261835 34.16332435 -23 33 C-31.00025371 30.93278116 -37.39900007 26.90149989 -42 20 C-42.83806998 14.99382976 -43.14290649 10.07501755 -40.64453125 5.5390625 C-30.84512625 -6.09908296 -12.94243661 -7.46044913 0 0 Z " fill="#8C77DC" transform="translate(456,17)"/>
<path d="M0 0 C0.01401855 1.748573 0.01401855 1.748573 0.02832031 3.5324707 C0.06817182 7.8546378 0.13391648 12.17608942 0.20751953 16.49780273 C0.23575737 18.36880304 0.2569579 20.23992326 0.27099609 22.11108398 C0.29238717 24.79994221 0.33901545 27.48735438 0.390625 30.17578125 C0.39185364 31.01337479 0.39308228 31.85096832 0.39434814 32.71394348 C0.46752084 37.27012651 0.46752084 37.27012651 2.79223633 41.02661133 C6.26134548 42.55611904 9.71882791 42.43216148 13.4375 42.375 C14.56381836 42.39240234 14.56381836 42.39240234 15.71289062 42.41015625 C19.03623792 42.3926188 21.78672083 42.06336959 24.984375 41.11328125 C28.33224887 37.60320419 27.78334175 33.48106016 27.8125 28.8125 C27.83763672 27.87212891 27.86277344 26.93175781 27.88867188 25.96289062 C27.94756814 23.64237773 27.97663992 21.32114264 28 19 C30.97 18.01 33.94 17.02 37 16 C37.08732726 19.89569135 37.14050185 23.79112982 37.1875 27.6875 C37.21263672 28.79029297 37.23777344 29.89308594 37.26367188 31.02929688 C37.27333984 32.09599609 37.28300781 33.16269531 37.29296875 34.26171875 C37.3086792 35.24100342 37.32438965 36.22028809 37.34057617 37.22924805 C36.93750588 40.50841991 35.93008994 42.34147629 34 45 C27.6268627 49.57558575 21.32854255 49.24118373 13.75 49.3125 C12.23212891 49.35600586 12.23212891 49.35600586 10.68359375 49.40039062 C4.49239048 49.45258624 -1.06423068 49.09515073 -6 45 C-9.36430498 40.78390443 -9.46739836 36.71825401 -9.46875 31.5234375 C-9.47636353 30.7163736 -9.48397705 29.90930969 -9.49182129 29.07778931 C-9.50259195 27.37838832 -9.50548775 25.67892131 -9.50097656 23.97949219 C-9.50000032 21.37584198 -9.54173174 18.77510295 -9.5859375 16.171875 C-9.59114197 14.51823531 -9.59383274 12.86458538 -9.59375 11.2109375 C-9.61014526 10.43277679 -9.62654053 9.65461609 -9.64343262 8.85287476 C-9.61523438 6.65771484 -9.61523438 6.65771484 -9 3 C-5.77851939 0.16435428 -4.34600401 0 0 0 Z " fill="#080808" transform="translate(182,14)"/>
<path d="M0 0 C6 0 6 0 8.67578125 2.23828125 C9.57250174 3.24746893 10.45064837 4.27337577 11.3125 5.3125 C11.78252441 5.85285889 12.25254883 6.39321777 12.73681641 6.94995117 C14.17737492 8.61779996 15.59081605 10.30560634 17 12 C18.25490234 13.485 18.25490234 13.485 19.53515625 15 C23.59540522 19.88043281 27.29923549 24.81892969 31 30 C31.33 20.1 31.66 10.2 32 0 C33.98 0 35.96 0 38 0 C38 12.54 38 25.08 38 38 C32 38 32 38 29.32421875 35.76171875 C28.42758148 34.75245713 27.54942934 33.72655978 26.6875 32.6875 C26.21747559 32.14786621 25.74745117 31.60823242 25.26318359 31.05224609 C23.82131862 29.38458789 22.40744488 27.69676125 21 26 C20.16339844 24.99839844 19.32679687 23.99679688 18.46484375 22.96484375 C16.99000884 21.17485213 15.52388838 19.37761026 14.0703125 17.5703125 C11.74717945 14.6861209 9.37088802 11.84506562 7 9 C6.67 18.57 6.34 28.14 6 38 C4.02 38 2.04 38 0 38 C0 25.46 0 12.92 0 0 Z " fill="#0D0D0E" transform="translate(8,89)"/>
<path d="M0 0 C2.61301037 1.78449489 3.9142517 3.07748524 5.5625 5.75 C5.90307617 8.13183594 5.90307617 8.13183594 5.85546875 10.734375 C5.84580078 11.66894531 5.83613281 12.60351562 5.82617188 13.56640625 C5.80103516 14.53449219 5.77589844 15.50257812 5.75 16.5 C5.72969727 17.97533203 5.72969727 17.97533203 5.70898438 19.48046875 C5.67368726 21.90420415 5.62438054 24.32682145 5.5625 26.75 C3.9125 26.75 2.2625 26.75 0.5625 26.75 C0.5625 26.09 0.5625 25.43 0.5625 24.75 C-0.5925 25.245 -1.7475 25.74 -2.9375 26.25 C-8.53716734 28.32761509 -13.08424498 28.72682284 -18.75 26.375 C-20.67382814 25.21175508 -22.56691224 23.9970585 -24.4375 22.75 C-25 19.4375 -25 19.4375 -24.4375 15.75 C-20.0878187 11.20260592 -17.11193914 9.82563459 -10.984375 9.65234375 C-9.10492188 9.66974609 -9.10492188 9.66974609 -7.1875 9.6875 C-5.29257813 9.70103516 -5.29257813 9.70103516 -3.359375 9.71484375 C-2.39515625 9.72644531 -1.4309375 9.73804687 -0.4375 9.75 C-1.52534968 6.50016865 -1.52534968 6.50016865 -3.4375 3.75 C-5.53971693 3.65031328 -7.64542604 3.62031797 -9.75 3.625 C-10.90113281 3.62242188 -12.05226563 3.61984375 -13.23828125 3.6171875 C-15.85001737 3.72561122 -17.96057984 3.97940262 -20.4375 4.75 C-20.7675 3.76 -21.0975 2.77 -21.4375 1.75 C-14.1902654 -1.47099316 -7.63318596 -2.77570398 0 0 Z " fill="#111212" transform="translate(79.4375,100.25)"/>
<path d="M0 0 C3 2.1875 3 2.1875 5 5.1875 C5.22705078 7.45581055 5.22705078 7.45581055 5.1953125 10.07421875 C5.18886719 11.01201172 5.18242188 11.94980469 5.17578125 12.91601562 C5.15902344 13.89248047 5.14226562 14.86894531 5.125 15.875 C5.11597656 16.86306641 5.10695313 17.85113281 5.09765625 18.86914062 C5.0740843 21.30883765 5.04118022 23.74804697 5 26.1875 C3.35 26.1875 1.7 26.1875 0 26.1875 C-0.33 25.5275 -0.66 24.8675 -1 24.1875 C-1.99 24.6825 -2.98 25.1775 -4 25.6875 C-9.436144 27.98909323 -14.37495135 28.03165808 -19.875 25.875 C-23 24.1875 -23 24.1875 -25 21.1875 C-25.5 18.3125 -25.5 18.3125 -25 15.1875 C-21.22641529 11.14437353 -18.61000479 9.49916693 -13 9.1875 C-8.99829355 9.12593529 -5.0016908 9.12922295 -1 9.1875 C-2.08784968 5.93766865 -2.08784968 5.93766865 -4 3.1875 C-6.10221693 3.08781328 -8.20792604 3.05781797 -10.3125 3.0625 C-11.46363281 3.05992188 -12.61476563 3.05734375 -13.80078125 3.0546875 C-16.41251737 3.16311122 -18.52307984 3.41690262 -21 4.1875 C-21.33 3.1975 -21.66 2.2075 -22 1.1875 C-14.79043298 -2.01675201 -7.32990345 -3.96210997 0 0 Z " fill="#101011" transform="translate(118,100.8125)"/>
<path d="M0 0 C2.875 2.75 2.875 2.75 5 6 C5 8.31 5 10.62 5 13 C-3.58 13 -12.16 13 -21 13 C-18.72491903 18.66742665 -18.72491903 18.66742665 -16.18359375 20.36328125 C-13.39906167 21.17522889 -10.9616849 21.22771568 -8.0625 21.1875 C-7.04285156 21.18105469 -6.02320313 21.17460938 -4.97265625 21.16796875 C-2.21625952 21.01221966 0.31378395 20.61837386 3 20 C3.33 20.99 3.66 21.98 4 23 C-2.60062268 26.44380314 -8.44825821 27.15589426 -15.72265625 25.30859375 C-19.82357118 23.86512001 -22.52980291 22.47019709 -25.625 19.375 C-27.50316793 14.76495145 -28.02171064 10.89956694 -27 6 C-24.85347967 1.99365213 -22.21011762 -0.38149544 -18.1875 -2.4375 C-11.49528297 -3.61847948 -5.83050627 -3.97534519 0 0 Z " fill="#131414" transform="translate(200,102)"/>
<path d="M0 0 C0 4.29 0 8.58 0 13 C0.969375 12.505 1.93875 12.01 2.9375 11.5 C8.18327451 9.25485107 13.3426648 9.29137728 18.8125 10.75 C22.5401094 12.88006251 24.63666047 14.90998141 26 19 C26.0806622 20.48123547 26.10761193 21.96582204 26.09765625 23.44921875 C26.09443359 24.29677734 26.09121094 25.14433594 26.08789062 26.01757812 C26.07532227 27.33918945 26.07532227 27.33918945 26.0625 28.6875 C26.05798828 29.58017578 26.05347656 30.47285156 26.04882812 31.39257812 C26.03704983 33.59511987 26.02060164 35.79752599 26 38 C24.02 38 22.04 38 20 38 C19.98541748 37.40985107 19.97083496 36.81970215 19.95581055 36.21166992 C19.88131156 33.53628771 19.78466005 30.86215108 19.6875 28.1875 C19.66494141 27.25873047 19.64238281 26.32996094 19.61914062 25.37304688 C19.5659668 24.0340332 19.5659668 24.0340332 19.51171875 22.66796875 C19.48553467 21.84578857 19.45935059 21.0236084 19.43237305 20.17651367 C18.90560976 17.52485092 18.14654961 16.60671984 16 15 C13.16540899 14.598541 13.16540899 14.598541 10.0625 14.75 C9.02222656 14.76546875 7.98195312 14.7809375 6.91015625 14.796875 C3.78617276 14.92992583 3.78617276 14.92992583 0 16 C0 23.26 0 30.52 0 38 C-1.98 38 -3.96 38 -6 38 C-6 25.79 -6 13.58 -6 1 C-3 0 -3 0 0 0 Z " fill="#2D2D2F" transform="translate(139,89)"/>
<path d="M0 0 C3.35932107 2.05634911 5.2261378 3.67123795 7.4375 6.98828125 C8.13585741 12.21493517 8.58799742 17.24269896 5.625 21.73828125 C0.91017045 23.58723401 -3.56145137 23.30358379 -8.5625 22.98828125 C-8.0675 22.32828125 -7.5725 21.66828125 -7.0625 20.98828125 C-5.15310016 17.16948156 -4.68660008 14.18069544 -5.5625 9.98828125 C-9.09201348 4.86479394 -13.8044746 3.53128152 -19.5625 1.98828125 C-16.80939613 -3.51792648 -4.84084413 -1.91124791 0 0 Z " fill="#ACAEB3" transform="translate(145.5625,34.01171875)"/>
<path d="M0 0 C2.61301037 1.78449489 3.9142517 3.07748524 5.5625 5.75 C5.90307617 8.13183594 5.90307617 8.13183594 5.85546875 10.734375 C5.84580078 11.66894531 5.83613281 12.60351562 5.82617188 13.56640625 C5.80103516 14.53449219 5.77589844 15.50257812 5.75 16.5 C5.72969727 17.97533203 5.72969727 17.97533203 5.70898438 19.48046875 C5.67368726 21.90420415 5.62438054 24.32682145 5.5625 26.75 C3.9125 26.75 2.2625 26.75 0.5625 26.75 C0.5625 26.09 0.5625 25.43 0.5625 24.75 C-1.4175 25.08 -3.3975 25.41 -5.4375 25.75 C-4.798125 25.110625 -4.15875 24.47125 -3.5 23.8125 C-0.71895281 19.68306629 -0.73208674 16.68432784 -0.4375 11.75 C-3.4075 11.75 -6.3775 11.75 -9.4375 11.75 C-9.4375 11.42 -9.4375 11.09 -9.4375 10.75 C-6.7975 10.42 -4.1575 10.09 -1.4375 9.75 C-1.81654208 6.45924004 -1.81654208 6.45924004 -3.4375 3.75 C-5.53971693 3.65031328 -7.64542604 3.62031797 -9.75 3.625 C-10.90113281 3.62242188 -12.05226563 3.61984375 -13.23828125 3.6171875 C-15.85001737 3.72561122 -17.96057984 3.97940262 -20.4375 4.75 C-20.7675 3.76 -21.0975 2.77 -21.4375 1.75 C-14.1902654 -1.47099316 -7.63318596 -2.77570398 0 0 Z " fill="#101011" transform="translate(79.4375,100.25)"/>
<path d="M0 0 C2.5625 1.0625 2.5625 1.0625 4 3 C4.56619391 6.89258312 4.62346631 9.05233121 2.4375 12.375 C-0.76354773 14.50903182 -3.17515054 14.86339823 -7 15 C-10.39808026 13.89791992 -10.94731917 13.07902124 -13 10 C-13.44710264 6.497696 -13.40404695 4.66755584 -11.5625 1.625 C-7.76642178 -0.78226912 -4.37451602 -0.64213079 0 0 Z " fill="#ADAEB3" transform="translate(130,41)"/>
<path d="M0 0 C6.38212901 -0.25027957 11.18788287 -0.42154531 16.25 3.9375 C18.86549639 7.02004932 19.12380139 9.5535931 19.09765625 13.44921875 C19.09443359 14.29677734 19.09121094 15.14433594 19.08789062 16.01757812 C19.07951172 16.89865234 19.07113281 17.77972656 19.0625 18.6875 C19.05798828 19.58017578 19.05347656 20.47285156 19.04882812 21.39257812 C19.03704983 23.59511987 19.02060164 25.79752599 19 28 C17.02 28 15.04 28 13 28 C12.98541748 27.40985107 12.97083496 26.81970215 12.95581055 26.21166992 C12.88131156 23.53628771 12.78466005 20.86215108 12.6875 18.1875 C12.66494141 17.25873047 12.64238281 16.32996094 12.61914062 15.37304688 C12.58369141 14.48037109 12.54824219 13.58769531 12.51171875 12.66796875 C12.48553467 11.84578857 12.45935059 11.0236084 12.43237305 10.17651367 C11.90628668 7.52825849 11.11506391 6.63402049 9 5 C6.50556226 4.21201945 6.50556226 4.21201945 3.8125 3.8125 C2.46091797 3.57466797 2.46091797 3.57466797 1.08203125 3.33203125 C0.39496094 3.22246094 -0.29210937 3.11289063 -1 3 C-0.67 2.01 -0.34 1.02 0 0 Z " fill="#121213" transform="translate(146,99)"/>
<path d="M0 0 C0 12.54 0 25.08 0 38 C-1.65 38 -3.3 38 -5 38 C-5 25.79 -5 13.58 -5 1 C-3 0 -3 0 0 0 Z " fill="#060606" transform="translate(219,89)"/>
<path d="M0 0 C0 2.64 0 5.28 0 8 C-4.8241603 10.96871403 -9.4157782 12.08493452 -15 11 C-16.7578125 9.64453125 -16.7578125 9.64453125 -18 8 C-18.1875 5.3125 -18.1875 5.3125 -18 3 C-12.27544841 -0.81636773 -6.70250505 -0.29282789 0 0 Z " fill="#ACADB2" transform="translate(117,113)"/>
<path d="M0 0 C0 2.64 0 5.28 0 8 C-4.8241603 10.96871403 -9.4157782 12.08493452 -15 11 C-16.7578125 9.64453125 -16.7578125 9.64453125 -18 8 C-18.1875 5.3125 -18.1875 5.3125 -18 3 C-12.27544841 -0.81636773 -6.70250505 -0.29282789 0 0 Z " fill="#A8A9AE" transform="translate(79,113)"/>
<path d="M0 0 C2.5 1.8125 2.5 1.8125 4 4 C4 5.32 4 6.64 4 8 C-2.6 8 -9.2 8 -16 8 C-15 3 -15 3 -13.125 1.25 C-8.72257572 -1.33966134 -4.84148853 -1.26638533 0 0 Z " fill="#AAABB0" transform="translate(195,103)"/>
<path d="M0 0 C0.33 0 0.66 0 1 0 C1 4.29 1 8.58 1 13 C1.66 13 2.32 13 3 13 C2.67 13.99 2.34 14.98 2 16 C1.8535286 17.55266653 1.75305926 19.10995662 1.68359375 20.66796875 C1.64169922 21.56064453 1.59980469 22.45332031 1.55664062 23.37304688 C1.49766602 24.76620117 1.49766602 24.76620117 1.4375 26.1875 C1.39431641 27.12787109 1.35113281 28.06824219 1.30664062 29.03710938 C1.20061335 31.35792854 1.09854971 33.67885325 1 36 C0.01 36 -0.98 36 -2 36 C-2.04936883 31.19451403 -2.08570443 26.38917506 -2.10986328 21.58349609 C-2.11993254 19.94805328 -2.13358881 18.31262851 -2.15087891 16.67724609 C-2.17508705 14.3290563 -2.18647357 11.98110412 -2.1953125 9.6328125 C-2.21079636 8.53273361 -2.21079636 8.53273361 -2.22659302 7.41043091 C-2.22699368 5.60537303 -2.12212755 3.8009217 -2 2 C-1.34 1.34 -0.68 0.68 0 0 Z " fill="#010101" transform="translate(137,90)"/>
<path d="M0 0 C1.65 1.65 3.3 3.3 5 5 C4.34 5 3.68 5 3 5 C2.67 13.25 2.34 21.5 2 30 C1.34 30 0.68 30 0 30 C0 20.1 0 10.2 0 0 Z " fill="#85868A" transform="translate(14,97)"/>
<path d="M0 0 C1 1 1 1 1.125 3.5 C1 6 1 6 0 7 C-3.4375 7.1875 -3.4375 7.1875 -7 7 C-7.66 6.34 -8.32 5.68 -9 5 C-9 3.68 -9 2.36 -9 1 C-6.01787087 -0.49106457 -3.28390342 -0.11941467 0 0 Z " fill="#0B0B0B" transform="translate(218,13)"/>
<path d="M0 0 C0.33 0 0.66 0 1 0 C1 4.29 1 8.58 1 13 C2.32 12.34 3.64 11.68 5 11 C7.359375 11.2421875 7.359375 11.2421875 9.75 11.875 C10.54921875 12.07867187 11.3484375 12.28234375 12.171875 12.4921875 C13.07679688 12.74355469 13.07679688 12.74355469 14 13 C14 13.33 14 13.66 14 14 C13.38511719 14.06058594 12.77023438 14.12117188 12.13671875 14.18359375 C10.92435547 14.30927734 10.92435547 14.30927734 9.6875 14.4375 C8.88699219 14.51871094 8.08648437 14.59992188 7.26171875 14.68359375 C4.83912821 14.95265693 4.83912821 14.95265693 2 16 C2 15.34 2 14.68 2 14 C1.34 14 0.68 14 0 14 C0 9.38 0 4.76 0 0 Z " fill="#212122" transform="translate(138,89)"/>
<path d="M0 0 C2.66137006 0.38896947 5.3280376 0.68827105 8 1 C8 1.33 8 1.66 8 2 C7.25234375 2.06058594 6.5046875 2.12117188 5.734375 2.18359375 C4.74953125 2.26738281 3.7646875 2.35117188 2.75 2.4375 C1.77546875 2.51871094 0.8009375 2.59992188 -0.203125 2.68359375 C-2.56461753 2.95074584 -4.71901065 3.35371968 -7 4 C-7.33 3.01 -7.66 2.02 -8 1 C-4.8032629 -0.9408761 -3.52242583 -1.07629678 0 0 Z " fill="#242526" transform="translate(66,101)"/>
<path d="M0 0 C2.66137006 0.38896947 5.3280376 0.68827105 8 1 C8 1.33 8 1.66 8 2 C7.25234375 2.06058594 6.5046875 2.12117188 5.734375 2.18359375 C4.74953125 2.26738281 3.7646875 2.35117188 2.75 2.4375 C1.77546875 2.51871094 0.8009375 2.59992188 -0.203125 2.68359375 C-2.56461753 2.95074584 -4.71901065 3.35371968 -7 4 C-7.33 3.01 -7.66 2.02 -8 1 C-4.8032629 -0.9408761 -3.52242583 -1.07629678 0 0 Z " fill="#222223" transform="translate(104,101)"/>
<path d="M0 0 C-0.99 0.66 -1.98 1.32 -3 2 C-2.67 2.66 -2.34 3.32 -2 4 C-2.99 4 -3.98 4 -5 4 C-5 3.34 -5 2.68 -5 2 C-7.31 2 -9.62 2 -12 2 C-12 1.67 -12 1.34 -12 1 C-10.37681021 0.63762737 -8.7513642 0.28534843 -7.125 -0.0625 C-6.22007813 -0.25972656 -5.31515625 -0.45695312 -4.3828125 -0.66015625 C-2 -1 -2 -1 0 0 Z " fill="#2D2E2F" transform="translate(116,123)"/>
<path d="M0 0 C-0.99 0.66 -1.98 1.32 -3 2 C-2.67 2.66 -2.34 3.32 -2 4 C-2.99 4 -3.98 4 -5 4 C-5 3.34 -5 2.68 -5 2 C-7.31 2 -9.62 2 -12 2 C-12 1.67 -12 1.34 -12 1 C-10.37681021 0.63762737 -8.7513642 0.28534843 -7.125 -0.0625 C-6.22007813 -0.25972656 -5.31515625 -0.45695312 -4.3828125 -0.66015625 C-2 -1 -2 -1 0 0 Z " fill="#2E2E2F" transform="translate(78,123)"/>
<path d="M0 0 C0.53625 0.226875 1.0725 0.45375 1.625 0.6875 C-0.0146875 1.30625 -0.0146875 1.30625 -1.6875 1.9375 C-4.88515942 3.29035591 -6.58153426 4.62805844 -8.375 7.6875 C-8.375 6.0375 -8.375 4.3875 -8.375 2.6875 C-2.95961538 -0.38942308 -2.95961538 -0.38942308 0 0 Z " fill="#8C8D91" transform="translate(107.375,113.3125)"/>
</svg>
